<?xml version="1.0" encoding="UTF-8" standalone="no"?>
<!DOCTYPE svg PUBLIC "-//W3C//DTD SVG 20010904//EN"
              "http://www.w3.org/TR/2001/REC-SVG-20010904/DTD/svg10.dtd">

<svg xmlns="http://www.w3.org/2000/svg"
     width="4.8605in" height="4.8605in"
     viewBox="0 0 350 350">
  <path id="Selection"
        fill="none" stroke="black" stroke-width="1"
        d="M 66.00,107.00
           C 81.47,106.98 93.82,100.74 108.00,95.69
             125.51,89.45 152.52,82.22 171.00,82.00
             193.75,81.74 200.96,82.64 223.00,88.91
             243.58,94.76 267.30,104.48 289.00,104.00
             292.93,103.90 301.41,101.90 304.51,104.00
             306.21,105.19 307.85,109.07 308.69,111.00
             309.73,113.36 311.48,116.91 309.36,119.16
             305.44,123.33 289.64,123.06 284.00,123.00
             271.93,122.86 260.46,118.77 249.00,115.42
             231.22,110.22 204.26,102.22 186.00,102.00
             169.13,101.81 157.49,102.55 141.00,106.88
             110.82,114.81 82.81,128.30 51.00,129.00
             51.00,129.00 54.00,107.00 54.00,107.00
             54.00,107.00 66.00,107.00 66.00,107.00 Z
           M 89.00,127.72
           C 114.44,120.09 140.43,112.85 167.00,110.91
             172.76,110.49 174.49,109.76 181.00,110.04
             199.95,110.86 219.14,115.90 237.00,122.08
             251.35,127.04 265.53,133.98 281.00,134.00
             281.00,134.00 300.82,133.19 300.82,133.19
             304.81,135.02 309.53,144.86 311.00,149.00
             291.54,149.06 255.38,158.94 257.10,184.00
             257.59,191.17 261.59,198.37 268.00,201.86
             273.33,204.77 279.26,202.89 279.27,207.15
             279.28,211.28 271.87,218.01 269.17,221.00
             269.17,221.00 250.13,242.00 250.13,242.00
             250.13,242.00 237.71,257.00 237.71,257.00
             234.88,260.23 227.23,269.90 222.56,265.63
             216.51,260.11 217.76,246.23 219.20,239.00
             223.76,216.03 235.35,193.06 243.00,171.00
             234.03,177.07 227.14,185.56 219.00,192.72
             197.96,211.20 176.08,228.98 152.00,243.40
             138.16,251.69 118.12,261.03 102.00,262.83
             77.69,265.55 49.68,262.19 41.03,235.00
             39.54,230.33 39.06,227.90 39.00,223.00
             38.87,211.27 40.98,201.06 51.00,193.56
             62.77,184.75 91.20,183.67 97.44,200.00
             99.66,205.80 99.38,212.82 95.35,217.81
             89.81,224.69 76.29,224.93 70.85,217.81
             67.83,213.86 68.01,209.69 68.00,205.00
             64.92,206.93 62.77,208.23 60.33,211.04
             48.70,224.43 64.24,245.02 88.00,246.82
             97.85,247.56 114.89,241.77 124.00,237.85
             142.96,229.69 168.93,211.54 185.00,198.39
             185.00,198.39 204.00,182.00 204.00,182.00
             204.00,182.00 178.00,183.91 178.00,183.91
             164.20,183.13 150.49,181.53 137.00,178.35
             109.51,171.85 75.56,157.24 48.00,155.00
             48.00,155.00 48.00,139.00 48.00,139.00
             48.00,139.00 89.00,127.72 89.00,127.72 Z
           M 105.00,142.42
           C 105.00,142.42 91.00,146.00 91.00,146.00
             93.40,149.13 98.34,150.55 102.00,151.94
             102.00,151.94 129.00,160.50 129.00,160.50
             159.58,168.37 195.41,168.21 226.00,160.50
             234.92,158.09 252.02,152.55 259.00,147.00
             239.65,141.35 221.45,130.94 201.00,130.00
             201.00,134.34 201.46,139.14 199.15,143.00
             191.39,155.96 170.54,156.77 161.42,144.98
             157.67,140.15 158.00,135.73 158.00,130.00
             144.87,130.29 118.52,138.57 105.00,142.42 Z" />
</svg>
