<?xml version="1.0" encoding="UTF-8" standalone="no"?>
<!DOCTYPE svg PUBLIC "-//W3C//DTD SVG 20010904//EN"
              "http://www.w3.org/TR/2001/REC-SVG-20010904/DTD/svg10.dtd">

<svg xmlns="http://www.w3.org/2000/svg"
     width="4.8605in" height="4.8605in"
     viewBox="0 0 350 350">
  <path id="Selection #1"
        fill="none" stroke="black" stroke-width="1"
        d="M 79.00,105.55
           C 89.12,103.48 99.29,98.72 109.00,95.34
             126.55,89.25 152.50,82.22 171.00,82.00
             187.57,81.81 193.54,81.74 210.00,85.42
             210.00,85.42 269.00,101.80 269.00,101.80
             272.79,102.55 286.54,104.12 290.00,103.93
             293.63,103.52 301.40,101.89 304.51,103.93
             306.14,105.14 307.40,108.20 308.23,110.00
             309.14,111.97 310.88,115.55 310.22,117.73
             309.48,120.14 306.14,120.96 304.00,121.52
             297.05,123.36 291.10,123.08 284.00,123.00
             270.21,122.83 252.26,116.58 239.00,112.34
             227.14,108.56 198.06,102.14 186.00,102.00
             169.13,101.81 157.49,102.55 141.00,106.88
             111.07,114.74 82.56,128.71 51.00,129.00
             51.00,129.00 54.00,107.00 54.00,107.00
             63.47,107.00 69.53,107.49 79.00,105.55 Z
           M 89.00,127.72
           C 114.44,120.09 140.43,112.85 167.00,110.91
             172.76,110.49 174.49,109.76 181.00,110.04
             199.95,110.86 219.14,115.90 237.00,122.08
             251.35,127.04 265.53,133.98 281.00,134.00
             281.00,134.00 299.91,132.77 299.91,132.77
             304.95,134.23 309.37,144.35 311.00,149.00
             291.51,149.18 255.38,158.95 257.10,184.00
             257.59,191.17 261.59,198.37 268.00,201.86
             273.33,204.77 279.26,202.89 279.27,207.15
             279.28,211.28 271.87,218.01 269.17,221.00
             269.17,221.00 250.13,242.00 250.13,242.00
             250.13,242.00 237.71,257.00 237.71,257.00
             234.88,260.23 227.23,269.90 222.56,265.63
             216.51,260.11 217.76,246.23 219.20,239.00
             223.76,216.03 235.35,193.06 243.00,171.00
             233.82,177.20 235.73,176.93 228.83,183.83
             228.83,183.83 218.00,193.58 218.00,193.58
             196.15,212.41 175.85,229.09 151.00,244.00
             132.46,255.13 108.96,264.48 87.00,263.99
             62.25,263.42 39.32,250.30 39.00,223.00
             38.87,211.98 40.82,201.23 50.17,194.05
             62.12,184.89 91.04,183.26 97.44,200.00
             99.77,206.11 99.33,213.74 94.61,218.66
             88.91,224.59 75.91,224.72 70.85,217.89
             67.85,213.84 68.01,209.76 68.00,205.00
             64.44,207.22 62.19,208.61 59.53,212.02
             54.72,218.19 56.15,225.72 60.13,232.00
             66.12,241.44 77.17,246.00 88.00,246.82
             97.68,247.55 115.01,241.71 124.00,237.85
             142.80,229.77 169.05,211.44 185.00,198.39
             185.00,198.39 204.00,182.00 204.00,182.00
             204.00,182.00 180.00,183.96 180.00,183.96
             180.00,183.96 153.00,181.56 153.00,181.56
             116.50,175.69 88.77,160.38 48.00,155.00
             48.00,155.00 48.00,139.00 48.00,139.00
             48.00,139.00 89.00,127.72 89.00,127.72 Z
           M 105.00,142.42
           C 105.00,142.42 91.00,146.00 91.00,146.00
             93.40,149.13 98.34,150.55 102.00,151.94
             102.00,151.94 129.00,160.50 129.00,160.50
             159.53,168.36 195.45,168.20 226.00,160.50
             234.92,158.09 252.02,152.55 259.00,147.00
             239.65,141.35 221.45,130.94 201.00,130.00
             201.00,134.34 201.46,139.14 199.15,143.00
             191.39,155.96 170.54,156.77 161.42,144.98
             157.67,140.15 158.00,135.73 158.00,130.00
             145.56,130.27 118.03,138.71 105.00,142.42 Z" />
</svg>
